<?xml version="1.0" encoding="UTF-8" standalone="no"?>
<!-- Generator: Adobe Illustrator 15.1.0, SVG Export Plug-In . SVG Version: 6.00 Build 0)  -->
<!DOCTYPE svg  PUBLIC '-//W3C//DTD SVG 1.1//EN'  'http://www.w3.org/Graphics/SVG/1.1/DTD/svg11.dtd'>
<svg id="Слой_1" xmlns="http://www.w3.org/2000/svg" xml:space="preserve" height="40px" viewBox="0 0 40 40" width="40px" version="1.1" y="0px" x="0px" xmlns:xlink="http://www.w3.org/1999/xlink" enable-background="new 0 0 40 40">
<path fill="#fff" clip-rule="evenodd" d="m13.925 12.5h11.149c1.059 0 1.926 0.866 1.926 1.925v11.15c0 1.059-0.867 1.925-1.926 1.925h-11.149c-1.059 0-1.925-0.866-1.925-1.925v-11.15c0-1.059 0.866-1.925 1.925-1.925zm9.002 1.667c-0.372 0-0.676 0.304-0.676 0.676v1.616c0 0.371 0.304 0.675 0.676 0.675h1.695c0.371 0 0.676-0.304 0.676-0.675v-1.616c0-0.372-0.305-0.676-0.676-0.676h-1.695zm2.377 4.676h-1.319c0.124 0.408 0.192 0.84 0.192 1.288 0 2.494-2.088 4.517-4.662 4.517-2.576 0-4.663-2.022-4.663-4.517 0-0.448 0.067-0.88 0.192-1.288h-1.377v6.336c0 0.328 0.268 0.597 0.596 0.597h10.445c0.328 0 0.596-0.269 0.596-0.597v-6.336zm-5.789-1.794c-1.664 0-3.013 1.306-3.013 2.918s1.349 2.919 3.013 2.919c1.663 0 3.012-1.308 3.012-2.919-0.001-1.612-1.349-2.918-3.012-2.918z" fill-rule="evenodd"/>
</svg>
