<?xml version="1.0" encoding="utf-8"?>
<!-- Generator: Adobe Illustrator 15.1.0, SVG Export Plug-In . SVG Version: 6.00 Build 0)  -->
<!DOCTYPE svg PUBLIC "-//W3C//DTD SVG 1.1//EN" "http://www.w3.org/Graphics/SVG/1.1/DTD/svg11.dtd">
<svg version="1.1" id="Слой_1" xmlns="http://www.w3.org/2000/svg" xmlns:xlink="http://www.w3.org/1999/xlink" x="0px" y="0px"
	 width="40px" height="40px" viewBox="0 0 40 40" enable-background="new 0 0 40 40" xml:space="preserve">
<path fill-rule="evenodd" clip-rule="evenodd" fill="#FFFFFF" d="M14.402,12.362h6.811c2.242,0,4.15,1.099,4.148,3.319
	c-0.002,1.854-0.674,2.575-2.051,3.391c0.117,0.097,0.906,0.332,1.174,0.463c0.424,0.209,0.674,0.421,0.953,0.705
	c0.783,0.796,0.928,1.523,0.928,2.771c0,2.896-2.799,4.351-5.497,4.351h-6.495L14.402,12.362L14.402,12.362z M18.104,16.302v1.948
	c1.753,0,3.402,0.231,3.402-1.671c0-1.761-1.865-1.471-3.403-1.471L18.104,16.302L18.104,16.302z M18.103,24.601
	c1.922,0,4.297,0.316,4.34-1.866c0.043-2.277-2.44-1.866-4.339-1.866L18.103,24.601L18.103,24.601z"/>
</svg>
